<?xml version="1.0" standalone="no"?>
<!DOCTYPE svg PUBLIC "-//W3C//DTD SVG 20010904//EN"
 "http://www.w3.org/TR/2001/REC-SVG-20010904/DTD/svg10.dtd">
<svg version="1.0" xmlns="http://www.w3.org/2000/svg"
 width="85.000000pt" height="85.000000pt" viewBox="0 0 85.000000 85.000000"
 preserveAspectRatio="xMidYMid meet">
<metadata>
Created by potrace 1.13, written by Peter Selinger 2001-2015
</metadata>
<g transform="translate(0.000000,85.000000) scale(0.100000,-0.100000)"
fill="#000000" stroke="none">
<path d="M0 425 l0 -425 425 0 c234 0 425 2 425 5 0 8 -128 291 -162 360 -62
124 -195 412 -207 448 l-13 37 -234 0 -234 0 0 -425z"/>
<path d="M668 826 c-37 -12 -70 -25 -73 -27 -3 -3 53 -125 124 -270 l130 -264
0 231 c1 195 -1 233 -14 237 -8 4 -17 2 -20 -3 -10 -16 -35 -12 -35 5 0 8 3
14 8 14 4 -1 19 -1 35 0 26 1 27 3 27 51 l0 50 -57 -1 c-32 -1 -88 -11 -125
-23z"/>
</g>
</svg>
